<?xml version="1.0" ?><svg id="Layer_2" style="enable-background:new 0 0 32 32;" version="1.1" viewBox="0 0 32 32" xml:space="preserve" xmlns="http://www.w3.org/2000/svg" xmlns:xlink="http://www.w3.org/1999/xlink"><g><path d="M10.73969,18.73187c0-1.06567-0.87189-1.9375-1.9375-1.9375H5.16937c-1.06567,0-1.9375,0.87183-1.9375,1.9375   c0,0.06781,0,0.13556,0.0097,0.19373c0.09686,6.88782,5.67688,12.46783,12.56464,12.5647C15.86438,31.5,15.93219,31.5,16,31.5   s0.13562,0,0.19379-0.0097c6.88776-0.09686,12.46777-5.67688,12.56464-12.5647c0.0097-0.05817,0.0097-0.12592,0.0097-0.19373   c0-1.06567-0.87183-1.9375-1.9375-1.9375h-3.63281c-1.06561,0-1.9375,0.87183-1.9375,1.9375   c0,1.06561,0.87189,1.9375,1.9375,1.9375h1.48218c-0.74591,3.35181-3.39063,5.99658-6.7425,6.74243V16.28088h1.52094   c1.06561,0,1.9375-0.86218,1.9375-1.9375c0-1.06561-0.87189-1.9375-1.9375-1.9375h-1.52094v-1.48212   c2.01502-0.77509,3.45844-2.73193,3.45844-5.02783C21.39594,2.92188,18.97406,0.5,16,0.5s-5.39594,2.42188-5.39594,5.39594   c0,2.2959,1.44342,4.25275,3.45843,5.02783v1.48212h-1.52093c-1.06561,0-1.9375,0.87189-1.9375,1.9375   c0,1.07532,0.87189,1.9375,1.9375,1.9375h1.52093V27.4118c-3.35186-0.74585-5.99658-3.39063-6.74249-6.74243h1.48218   C9.8678,20.66937,10.73969,19.79749,10.73969,18.73187z M13.99469,5.89594c0-1.10437,0.90094-2.00531,2.00531-2.00531   s2.00531,0.90094,2.00531,2.00531c0,0.76526-0.42627,1.42401-1.05597,1.77277C16.66846,7.81403,16.33905,7.90125,16,7.90125   s-0.66846-0.08722-0.94934-0.23254C14.42096,7.31995,13.99469,6.66119,13.99469,5.89594z"/></g></svg>