<?xml version="1.0" encoding="iso-8859-1"?>
<!-- Uploaded to: SVG Repo, www.svgrepo.com, Generator: SVG Repo Mixer Tools -->
<svg fill="#000000" height="800px" width="800px" version="1.1" id="Layer_1" xmlns="http://www.w3.org/2000/svg" xmlns:xlink="http://www.w3.org/1999/xlink" 
	 viewBox="0 0 512.011 512.011" xml:space="preserve">
<g transform="translate(-1)">
	<g>
		<g>
			<path d="M186.762,121.757l48.915-48.915V191.28c0,11.782,9.551,21.333,21.333,21.333c11.782,0,21.333-9.551,21.333-21.333V72.842
				l48.915,48.915c8.331,8.331,21.839,8.331,30.17,0c8.331-8.331,8.331-21.839,0-30.17L272.096,6.254
				c-0.004-0.004-0.008-0.006-0.011-0.01c-0.494-0.493-1.012-0.96-1.552-1.403c-0.247-0.203-0.507-0.379-0.761-0.569
				c-0.303-0.227-0.6-0.462-0.916-0.673c-0.304-0.203-0.619-0.379-0.931-0.565c-0.286-0.171-0.565-0.35-0.859-0.508
				c-0.318-0.17-0.644-0.314-0.969-0.467c-0.307-0.145-0.609-0.298-0.923-0.429c-0.315-0.13-0.637-0.236-0.957-0.35
				c-0.337-0.121-0.669-0.25-1.013-0.354c-0.32-0.097-0.646-0.168-0.969-0.249c-0.351-0.089-0.698-0.187-1.055-0.258
				c-0.375-0.074-0.753-0.119-1.13-0.173c-0.311-0.044-0.617-0.104-0.933-0.135c-1.4-0.138-2.811-0.138-4.211,0
				c-0.315,0.031-0.621,0.09-0.933,0.135c-0.377,0.054-0.756,0.098-1.13,0.173c-0.358,0.071-0.704,0.169-1.055,0.258
				c-0.324,0.081-0.649,0.152-0.969,0.249c-0.344,0.104-0.677,0.233-1.013,0.354c-0.32,0.115-0.642,0.22-0.957,0.35
				c-0.315,0.13-0.616,0.284-0.923,0.429c-0.324,0.153-0.651,0.297-0.969,0.467c-0.294,0.158-0.573,0.337-0.859,0.508
				c-0.312,0.186-0.627,0.362-0.931,0.565c-0.316,0.211-0.612,0.446-0.916,0.673c-0.254,0.19-0.514,0.366-0.761,0.569
				c-0.54,0.443-1.059,0.91-1.552,1.403c-0.004,0.004-0.008,0.006-0.011,0.01l-85.333,85.333c-8.331,8.331-8.331,21.839,0,30.17
				C164.924,130.088,178.431,130.088,186.762,121.757z"/>
			<path d="M327.259,390.254l-48.915,48.915V320.741c0-11.782-9.551-21.333-21.333-21.333c-11.782,0-21.333,9.551-21.333,21.333
				v118.425l-48.915-48.915c-8.331-8.331-21.839-8.331-30.17,0s-8.331,21.839,0,30.17l85.313,85.313
				c0.007,0.007,0.013,0.015,0.02,0.022c1.462,1.462,3.09,2.652,4.814,3.601c0.04,0.022,0.077,0.048,0.117,0.069
				c0.547,0.296,1.105,0.56,1.671,0.805c0.071,0.031,0.139,0.068,0.211,0.098c0.566,0.238,1.14,0.443,1.721,0.63
				c0.082,0.026,0.161,0.06,0.244,0.085c0.628,0.194,1.263,0.355,1.903,0.489c0.041,0.009,0.08,0.021,0.121,0.029
				c2.826,0.577,5.743,0.577,8.569,0c0.041-0.008,0.08-0.021,0.121-0.029c0.64-0.135,1.275-0.295,1.903-0.489
				c0.083-0.026,0.161-0.059,0.244-0.085c0.58-0.187,1.155-0.392,1.721-0.63c0.072-0.03,0.14-0.067,0.211-0.098
				c0.565-0.245,1.124-0.509,1.671-0.805c0.04-0.022,0.077-0.047,0.117-0.069c1.725-0.949,3.352-2.139,4.814-3.601l85.333-85.333
				c8.331-8.331,8.331-21.839,0-30.17C349.098,381.923,335.59,381.923,327.259,390.254z"/>
			<path d="M508.175,269.527c0.204-0.248,0.38-0.509,0.571-0.764c0.226-0.302,0.461-0.598,0.671-0.913
				c0.204-0.304,0.38-0.62,0.566-0.932c0.17-0.285,0.349-0.564,0.506-0.857c0.17-0.318,0.315-0.646,0.468-0.971
				c0.145-0.306,0.297-0.607,0.428-0.921c0.13-0.315,0.236-0.637,0.35-0.957c0.121-0.337,0.25-0.669,0.354-1.013
				c0.097-0.32,0.168-0.646,0.249-0.969c0.089-0.351,0.187-0.698,0.258-1.055c0.074-0.375,0.118-0.753,0.173-1.13
				c0.044-0.311,0.104-0.617,0.135-0.933c0.138-1.4,0.138-2.811,0-4.211c-0.031-0.315-0.09-0.621-0.135-0.933
				c-0.054-0.377-0.098-0.756-0.173-1.13c-0.071-0.358-0.169-0.704-0.258-1.055c-0.081-0.324-0.152-0.649-0.249-0.969
				c-0.104-0.344-0.233-0.677-0.354-1.013c-0.115-0.32-0.22-0.642-0.35-0.957c-0.13-0.314-0.283-0.615-0.428-0.921
				c-0.153-0.325-0.297-0.653-0.468-0.971c-0.157-0.293-0.336-0.572-0.506-0.857c-0.186-0.312-0.363-0.628-0.566-0.932
				c-0.211-0.315-0.445-0.611-0.671-0.913c-0.191-0.255-0.368-0.516-0.571-0.764c-0.439-0.535-0.903-1.05-1.392-1.54
				c-0.007-0.008-0.014-0.016-0.021-0.023l-85.333-85.333c-8.331-8.331-21.839-8.331-30.17,0s-8.331,21.839,0,30.17l48.915,48.915
				H321.736c-11.782,0-21.333,9.551-21.333,21.333s9.551,21.333,21.333,21.333h118.438l-48.915,48.915
				c-8.331,8.331-8.331,21.839,0,30.17c8.331,8.331,21.839,8.331,30.17,0l85.333-85.333c0.008-0.008,0.014-0.016,0.021-0.023
				C507.272,270.577,507.736,270.063,508.175,269.527z"/>
			<path d="M73.845,277.337h118.43c11.782,0,21.333-9.551,21.333-21.333c0-11.782-9.551-21.333-21.333-21.333H73.849l48.913-48.913
				c8.331-8.331,8.331-21.839,0-30.17c-8.331-8.331-21.839-8.331-30.17,0L7.388,240.791C6.32,241.84,5.364,243,4.535,244.254
				c-0.025,0.038-0.046,0.079-0.071,0.117c-0.356,0.546-0.69,1.107-0.997,1.686c-0.034,0.064-0.061,0.131-0.094,0.196
				c-0.286,0.556-0.554,1.122-0.792,1.705c-0.018,0.044-0.031,0.089-0.049,0.134C1.553,250.54,1,253.205,1,256.003
				c0,2.088,0.313,4.1,0.872,6.007c0.008,0.026,0.012,0.053,0.02,0.079c0.175,0.59,0.382,1.166,0.606,1.733
				c0.032,0.081,0.057,0.165,0.09,0.246c0.22,0.538,0.469,1.059,0.73,1.574c0.055,0.109,0.102,0.222,0.159,0.33
				c0.275,0.519,0.578,1.02,0.893,1.512c0.062,0.097,0.115,0.197,0.178,0.293c0.814,1.227,1.749,2.365,2.792,3.396l85.25,85.25
				c8.331,8.331,21.839,8.331,30.17,0c8.331-8.331,8.331-21.839,0-30.17L73.845,277.337z"/>
		</g>
	</g>
</g>
</svg>